<?xml version="1.0" encoding="utf-8"?>
<!-- Uploaded to: SVG Repo, www.svgrepo.com, Generator: SVG Repo Mixer Tools -->
<svg width="800px" height="800px" viewBox="0 0 1024 1024" class="icon"  version="1.1" xmlns="http://www.w3.org/2000/svg"><path d="M624.9 351.1c176.7-93.5 336.4 13.9 336.4 190.1 0 152.8-101.1 209-211.6 135.3-35.2-24.4-58.1-40.2-74.7-50.9 91.4 175.8-15.8 334.2-191.3 334.2-152.8 0-209-101.1-135.3-211.6 25.6-36.9 41.7-60.3 52.4-77.1-177.2 94.8-337.6-12.7-337.6-189.3 0-152.8 101.1-209 211.6-135.3 35.5 24.6 58.5 40.4 75.1 51.1-91.2-175.7 16-333.9 191.4-333.9 152.8 0 209 101.1 135.3 211.6-25 36-41 59.2-51.7 75.8z" fill="#5E676F" /><path d="M513.2 609.8c54.1 0 98-43.9 98-98s-43.9-98-98-98-98 43.9-98 98 43.9 98 98 98zM472.4 655.9c-10.6 26.5-28 52.7-77.4 123.4-48.6 72.8-19.9 124.5 88.7 124.5 146.9 0 227.6-137.2 117.2-291.8 0 0-51.3 25.7-87.8 25.7-11.6 0-22.9-1.6-33.6-4.5-1.7 7.7-4.1 15.2-7.1 22.7zM367 470.4c-26.5-10.6-52.7-28-123.4-77.4-72.8-48.6-124.5-19.9-124.5 88.7 0 147 137.2 227.6 291.8 117.2 0 0-23.7-50.8-23.7-87.2 0-11.7 1.6-23 4.6-33.7-8.4-1.8-16.6-4.3-24.8-7.6zM552.6 367.5c10.6-26.5 28-52.7 77.4-123.4 48.6-72.8 19.9-124.5-88.7-124.5-147 0-227.6 137.2-117.2 291.8 0 0 52.9-25.7 89.2-25.7 11.1 0 21.9 1.4 32.2 4.2 1.7-7.5 4.1-14.9 7.1-22.4zM613.5 424s25.7 50.6 25.7 87.8c0 11.6-1.6 22.9-4.5 33.6 7.7 1.8 15.2 4.2 22.7 7.2 26.5 10.6 52.7 28 123.4 77.4 72.8 48.6 124.5 19.9 124.5-88.7 0-147-137.2-227.7-291.8-117.3z" fill="#FFFFFF" /></svg>